<?xml version="1.0" standalone="no"?><!DOCTYPE svg PUBLIC "-//W3C//DTD SVG 1.1//EN" "http://www.w3.org/Graphics/SVG/1.1/DTD/svg11.dtd"><svg t="1588211878307" class="icon" viewBox="0 0 1024 1024" version="1.1" xmlns="http://www.w3.org/2000/svg" p-id="1963" xmlns:xlink="http://www.w3.org/1999/xlink" width="200" height="200"><defs><style type="text/css"></style></defs><path d="M587.543273 303.197091l-29.323637 310.365091c-2.653091 25.367273-22.993455 44.450909-46.219636 44.450909-23.505455 0-43.845818-19.083636-46.219636-44.450909l-29.323637-310.365091c-4.794182-65.815273 29.044364-100.072727 75.543273-100.072727s80.337455 34.257455 75.543273 100.072727m-41.704728 520.936727a68.514909 68.514909 0 0 1-67.67709 0 67.025455 67.025455 0 0 1 33.838545-125.207273c37.515636 0 67.630545 29.835636 67.630545 67.118546 0 24.017455-12.939636 46.219636-33.792 58.088727M512 0C229.236364 0 0 229.236364 0 512s229.236364 512 512 512 512-229.236364 512-512S794.763636 0 512 0" fill="#FBC80A" p-id="1964"></path></svg>