<?xml version="1.0" standalone="no"?><!DOCTYPE svg PUBLIC "-//W3C//DTD SVG 1.1//EN" "http://www.w3.org/Graphics/SVG/1.1/DTD/svg11.dtd"><svg t="1587484222221" class="icon" viewBox="0 0 1024 1024" version="1.1" xmlns="http://www.w3.org/2000/svg" p-id="6637" xmlns:xlink="http://www.w3.org/1999/xlink" width="200" height="200"><defs><style type="text/css"></style></defs><path d="M590.8 787.6h-4c-14.4-1.2-27.2-10.4-32.8-24L384.8 354.4l-157.6 218c-6.8 10.4-18 17.2-30.4 18H39.2c-21.6 0-39.2-17.6-39.2-39.2s17.6-39.2 39.2-39.2h137.6l185.2-259.2c8.4-11.6 22.4-18 36.4-16.4 14.4 1.6 26.4 10.8 32 24l168 404.4 118-175.2c7.2-10.4 18.8-16.8 31.6-17.2h236.4c21.6 0 39.2 17.6 39.2 39.2s-17.6 39.2-39.2 39.2h-215.2L624 770c-7.6 11.2-20 17.6-33.2 17.6z m0 0" p-id="6638"></path></svg>